<svg xmlns="http://www.w3.org/2000/svg" width="83.599" height="15.96" viewBox="0 0 83.599 15.96">
  <g id="Gruppe_68" data-name="Gruppe 68" transform="translate(-44.03 -25.169)">
    <g id="Gruppe_53" data-name="Gruppe 53" transform="translate(3 -3)">
      <g id="Gruppe_31" data-name="Gruppe 31" transform="translate(41.03 28.169)">
        <g id="Gruppe_5" data-name="Gruppe 5" transform="translate(0 0)">
          <g id="Gruppe_4" data-name="Gruppe 4" transform="translate(0 0)">
            <path id="Pfad_2" data-name="Pfad 2" d="M102.112,382.094a7.977,7.977,0,1,0,3.44,15.173v.787h4.535v-7.982A7.985,7.985,0,0,0,102.112,382.094Zm3.443,8.282c0,.006,0,.013,0,.018a3.456,3.456,0,1,1,0-.651c.01.109.016.218.016.329S105.564,390.267,105.554,390.376Z" transform="translate(-94.136 -382.094)"/>
          </g>
        </g>
        <g id="Gruppe_7" data-name="Gruppe 7" transform="translate(49.594 0)">
          <g id="Gruppe_6" data-name="Gruppe 6" transform="translate(0 0)">
            <path id="Pfad_3" data-name="Pfad 3" d="M343.564,382.094a7.977,7.977,0,1,0,7.976,7.978A7.986,7.986,0,0,0,343.564,382.094Zm0,11.435a3.458,3.458,0,1,1,3.457-3.457A3.461,3.461,0,0,1,343.564,393.529Z" transform="translate(-335.586 -382.094)"/>
          </g>
        </g>
        <g id="Gruppe_8" data-name="Gruppe 8" transform="translate(18.814 0)">
          <path id="Pfad_4" data-name="Pfad 4" d="M201.685,390.072v7.982h-4.5v-7.366l-.018-.616a3.457,3.457,0,1,0-6.914,0v.616h-.021v7.366h-4.5v-7.982a7.976,7.976,0,1,1,15.952,0Z" transform="translate(-185.733 -382.094)"/>
        </g>
        <g id="Gruppe_9" data-name="Gruppe 9" transform="translate(67.646 0)">
          <path id="Pfad_5" data-name="Pfad 5" d="M439.427,390.072v7.982h-4.5v-7.366l-.018-.616a3.458,3.458,0,1,0-6.916,0v.616h-.018v7.366h-4.5v-7.982a7.977,7.977,0,1,1,15.953,0Z" transform="translate(-423.474 -382.094)"/>
        </g>
        <g id="Gruppe_10" data-name="Gruppe 10" transform="translate(35.864 0)">
          <path id="Pfad_6" data-name="Pfad 6" d="M281.557,384.345a2.251,2.251,0,0,1-2.249,2.249h-1.9v11.459h-4.5V386.594h-1.918a2.25,2.25,0,0,1,0-4.5h8.319A2.253,2.253,0,0,1,281.557,384.345Z" transform="translate(-268.74 -382.094)"/>
        </g>
      </g>
    </g>
  </g>
</svg>
